<?xml version="1.0" encoding="UTF-8"?>
<svg width="24px" height="24px" viewBox="0 0 24 24" version="1.1" xmlns="http://www.w3.org/2000/svg">
    <g stroke="none" stroke-width="1" fill="none" fill-rule="evenodd">
        <path d="M19,3 C20.1045695,3 21,3.8954305 21,5 L21,19 C21,20.1045695 20.1045695,21 19,21 L5,21 C3.8954305,21 3,20.1045695 3,19 L3,5 C3,3.8954305 3.8954305,3 5,3 L19,3 Z M19,5 L5,5 L5,19 L19,19 L19,5 Z M16,7 L16,9 L8,9 L8,7 L16,7 Z M14,11 L14,13 L8,13 L8,11 L14,11 Z M12,15 L12,17 L8,17 L8,15 L12,15 Z" fill="currentColor"/>
    </g>
</svg> 